<svg version="1.1" id="Layer_1" xmlns="http://www.w3.org/2000/svg" xmlns:xlink="http://www.w3.org/1999/xlink" x="0px" y="0px"
	viewBox="0 0 348.9 78.2" style="enable-background:new 0 0 348.9 78.2;" xml:space="preserve">
	<style type="text/css">
		.st0{fill:#FFFFFF;}
	</style>
	<g>
		<path class="st0" d="M84.2,20.8H66.6c-5.3,0-10,2.4-13.1,6.2c-3.1-3.8-7.8-6.2-13.1-6.2H22.8c-9.4,0-17,7.6-17,17v34.6
			c0,0.1,0,0.2,0,0.3h7.7V28.2h36.1v44.4h0h7.6h0V28.2h36.1v44.4h7.7c0-0.1,0-0.2,0-0.3V37.8C101.2,28.4,93.6,20.8,84.2,20.8z"/>
			<path class="st0" d="M143.5,20.8h-17.6c-9.4,0-17,7.6-17,17v18c0,9.4,7.6,17,17,17h17.6c9.4,0,17-7.6,17-17v-18
				C160.4,28.4,152.8,20.8,143.5,20.8z M152.8,65h-36.1V28.5h36.1V65z"/>
				<path class="st0" d="M236.1,52V23.2v-8.5V5.5h-8.2v32.3V52v3.7c0,9.4,7.6,17,17,17h7.2V65h-16V52z"/>
				<path class="st0" d="M211.9,23.6c-2.7-1.7-5.9-2.8-9.3-2.8h-17.6c-9.4,0-17,7.6-17,17v18c0,9.4,7.6,17,17,17h17.6
					c9.4,0,17-7.6,17-17V52V37.8V5.5h-7.7V23.6z M211.9,65h-36.1V28.5h36.1V52V65z"/>
					<polygon class="st0" points="260.1,65 260.1,72 260.1,72.7 268.2,72.7 268.2,68.8 268.2,65 268.2,65 260.1,65 	"/>
					<polygon class="st0" points="335,5.5 335,12.6 335,13.2 343.1,13.2 343.1,9.3 343.1,5.5 343.1,5.5 335,5.5 	"/>
					<path class="st0" d="M310,20.8h-17.6c-9.4,0-17,7.6-17,17v18c0,0.3,0,0.6,0,0.9c0.2,3.8,1.6,7.2,3.9,9.9c3.1,3.7,7.8,6.1,13,6.1
						H310c3.3,0,6.3-0.9,8.9-2.5v2.5h8v-17v-6v-12C327,28.4,319.4,20.8,310,20.8z M318.9,65h-36.1V28.5h36.1v21.2V65z"/>
						<g>
							<rect x="335" y="21.1" class="st0" width="8" height="51.6"/>
						</g>
					</g>
				</svg>